<svg width="388" height="62" viewBox="0 0 388 62" fill="none" xmlns="http://www.w3.org/2000/svg" xmlns:xlink="http://www.w3.org/1999/xlink">
<path d="M11.648,46.08L0,14.336L8.576,14.336L16.64,38.336L24.704,14.336L33.28,14.336L21.568,46.08L11.648,46.08Z" fill="#F64920"/>
<path d="M43.263,9.408C41.77,9.408 40.532,8.96 39.551,8.064C38.612,7.168 38.143,6.037 38.143,4.672C38.143,3.307 38.612,2.197 39.551,1.344C40.532,0.448 41.77,0 43.263,0C44.756,0 45.972,0.448 46.911,1.344C47.892,2.197 48.383,3.307 48.383,4.672C48.383,6.037 47.892,7.168 46.911,8.064C45.972,8.96 44.756,9.408 43.263,9.408ZM39.167,46.08L39.167,14.336L47.359,14.336L47.359,46.08L39.167,46.08Z" fill="#F64920"/>
<path d="M70.901,46.848C67.915,46.848 65.248,46.123 62.902,44.672C60.555,43.221 58.699,41.237 57.333,38.72C55.968,36.203 55.285,33.344 55.285,30.144C55.285,26.944 55.968,24.107 57.333,21.632C58.699,19.115 60.555,17.152 62.902,15.744C65.248,14.293 67.915,13.568 70.901,13.568C73.291,13.568 75.382,14.016 77.174,14.912C78.965,15.808 80.416,17.067 81.525,18.688L81.525,0L89.717,0L89.717,46.08L82.422,46.08L81.525,41.536C80.501,42.944 79.136,44.181 77.429,45.248C75.765,46.315 73.589,46.848 70.901,46.848ZM72.63,39.68C75.275,39.68 77.429,38.805 79.093,37.056C80.8,35.264 81.654,32.981 81.654,30.208C81.654,27.435 80.8,25.173 79.093,23.424C77.429,21.632 75.275,20.736 72.63,20.736C70.027,20.736 67.872,21.611 66.165,23.36C64.459,25.109 63.605,27.371 63.605,30.144C63.605,32.917 64.459,35.2 66.165,36.992C67.872,38.784 70.027,39.68 72.63,39.68Z" fill="#F64920"/>
<path d="M113.883,46.848C110.684,46.848 107.846,46.165 105.371,44.8C102.897,43.435 100.955,41.515 99.548,39.04C98.14,36.565 97.435,33.707 97.435,30.464C97.435,27.179 98.118,24.256 99.483,21.696C100.891,19.136 102.812,17.152 105.243,15.744C107.718,14.293 110.619,13.568 113.947,13.568C117.062,13.568 119.814,14.251 122.203,15.616C124.593,16.981 126.449,18.859 127.771,21.248C129.137,23.595 129.82,26.219 129.82,29.12C129.82,29.589 129.798,30.08 129.755,30.592C129.755,31.104 129.734,31.637 129.691,32.192L105.563,32.192C105.734,34.667 106.587,36.608 108.123,38.016C109.702,39.424 111.601,40.128 113.819,40.128C115.483,40.128 116.87,39.765 117.979,39.04C119.132,38.272 119.985,37.291 120.539,36.096L128.859,36.096C128.262,38.101 127.259,39.936 125.852,41.6C124.486,43.221 122.779,44.501 120.731,45.44C118.726,46.379 116.443,46.848 113.883,46.848ZM113.947,20.224C111.942,20.224 110.172,20.8 108.635,21.952C107.099,23.061 106.118,24.768 105.691,27.072L121.499,27.072C121.371,24.981 120.603,23.317 119.195,22.08C117.787,20.843 116.038,20.224 113.947,20.224Z" fill="#F64920"/>
<path d="M152.342,46.848C149.27,46.848 146.496,46.144 144.021,44.736C141.589,43.328 139.648,41.387 138.198,38.912C136.79,36.395 136.086,33.493 136.086,30.208C136.086,26.923 136.811,24.043 138.262,21.568C139.712,19.051 141.654,17.088 144.086,15.68C146.56,14.272 149.333,13.568 152.406,13.568C155.435,13.568 158.165,14.272 160.598,15.68C163.072,17.088 165.014,19.051 166.422,21.568C167.872,24.043 168.598,26.923 168.598,30.208C168.598,33.493 167.872,36.395 166.422,38.912C165.014,41.387 163.072,43.328 160.598,44.736C158.123,46.144 155.371,46.848 152.342,46.848ZM152.342,39.744C154.475,39.744 156.331,38.955 157.91,37.376C159.488,35.755 160.278,33.365 160.278,30.208C160.278,27.051 159.488,24.683 157.91,23.104C156.331,21.483 154.496,20.672 152.406,20.672C150.23,20.672 148.352,21.483 146.774,23.104C145.238,24.683 144.47,27.051 144.47,30.208C144.47,33.365 145.238,35.755 146.774,37.376C148.352,38.955 150.208,39.744 152.342,39.744Z" fill="#F64920"/>
<path d="M195.138,46.848C192.749,46.848 190.658,46.4 188.866,45.504C187.074,44.608 185.623,43.349 184.514,41.728L183.618,46.08L176.322,46.08L176.322,0L184.514,0L184.514,18.88C185.538,17.472 186.882,16.235 188.546,15.168C190.253,14.101 192.45,13.568 195.138,13.568C198.125,13.568 200.792,14.293 203.138,15.744C205.484,17.195 207.34,19.179 208.706,21.696C210.072,24.213 210.754,27.072 210.754,30.272C210.754,33.472 210.072,36.331 208.706,38.848C207.34,41.323 205.484,43.285 203.138,44.736C200.792,46.144 198.125,46.848 195.138,46.848ZM193.41,39.68C196.013,39.68 198.167,38.805 199.874,37.056C201.58,35.307 202.434,33.045 202.434,30.272C202.434,27.499 201.58,25.216 199.874,23.424C198.167,21.632 196.013,20.736 193.41,20.736C190.765,20.736 188.589,21.632 186.882,23.424C185.218,25.173 184.386,27.435 184.386,30.208C184.386,32.981 185.218,35.264 186.882,37.056C188.589,38.805 190.765,39.68 193.41,39.68Z" fill="#F64920"/>
<path d="M233.896,46.848C230.696,46.848 227.858,46.165 225.384,44.8C222.91,43.435 220.968,41.515 219.56,39.04C218.152,36.565 217.448,33.707 217.448,30.464C217.448,27.179 218.13,24.256 219.496,21.696C220.904,19.136 222.824,17.152 225.256,15.744C227.73,14.293 230.632,13.568 233.96,13.568C237.074,13.568 239.826,14.251 242.216,15.616C244.606,16.981 246.462,18.859 247.784,21.248C249.15,23.595 249.832,26.219 249.832,29.12C249.832,29.589 249.81,30.08 249.768,30.592C249.768,31.104 249.746,31.637 249.704,32.192L225.576,32.192C225.746,34.667 226.6,36.608 228.136,38.016C229.714,39.424 231.614,40.128 233.832,40.128C235.496,40.128 236.882,39.765 237.992,39.04C239.144,38.272 239.998,37.291 240.552,36.096L248.872,36.096C248.274,38.101 247.272,39.936 245.864,41.6C244.498,43.221 242.792,44.501 240.744,45.44C238.738,46.379 236.456,46.848 233.896,46.848ZM233.96,20.224C231.954,20.224 230.184,20.8 228.648,21.952C227.112,23.061 226.13,24.768 225.704,27.072L241.512,27.072C241.384,24.981 240.616,23.317 239.208,22.08C237.8,20.843 236.05,20.224 233.96,20.224Z" fill="#F64920"/>
<path d="M257.122,46.08L257.122,0L265.314,0L265.314,46.08L257.122,46.08Z" fill="#F64920"/>
<path d="M285.028,46.848C282.298,46.848 280.058,46.421 278.308,45.568C276.56,44.672 275.258,43.499 274.404,42.048C273.552,40.597 273.124,38.997 273.124,37.248C273.124,34.304 274.276,31.915 276.58,30.08C278.884,28.245 282.34,27.328 286.948,27.328L295.012,27.328L295.012,26.56C295.012,24.384 294.394,22.784 293.156,21.76C291.92,20.736 290.384,20.224 288.548,20.224C286.884,20.224 285.434,20.629 284.196,21.44C282.96,22.208 282.192,23.36 281.892,24.896L273.892,24.896C274.106,22.592 274.874,20.587 276.196,18.88C277.562,17.173 279.312,15.872 281.444,14.976C283.578,14.037 285.968,13.568 288.612,13.568C293.136,13.568 296.698,14.699 299.3,16.96C301.904,19.221 303.204,22.421 303.204,26.56L303.204,46.08L296.228,46.08L295.46,40.96C294.522,42.667 293.2,44.075 291.492,45.184C289.828,46.293 287.674,46.848 285.028,46.848ZM286.884,40.448C289.232,40.448 291.044,39.68 292.324,38.144C293.648,36.608 294.48,34.709 294.82,32.448L287.844,32.448C285.668,32.448 284.112,32.853 283.172,33.664C282.234,34.432 281.764,35.392 281.764,36.544C281.764,37.781 282.234,38.741 283.172,39.424C284.112,40.107 285.348,40.448 286.884,40.448Z" fill="#F64920"/>
<path d="M315.966,9.408C314.472,9.408 313.236,8.96 312.254,8.064C311.316,7.168 310.846,6.037 310.846,4.672C310.846,3.307 311.316,2.197 312.254,1.344C313.236,0.448 314.472,0 315.966,0C317.46,0 318.676,0.448 319.614,1.344C320.596,2.197 321.086,3.307 321.086,4.672C321.086,6.037 320.596,7.168 319.614,8.064C318.676,8.96 317.46,9.408 315.966,9.408ZM305.406,60.16L305.406,53.184L307.902,53.184C309.31,53.184 310.312,52.907 310.91,52.352C311.508,51.797 311.806,50.859 311.806,49.536L311.806,14.336L319.998,14.336L319.998,49.536C319.998,53.376 319.016,56.107 317.054,57.728C315.134,59.349 312.51,60.16 309.182,60.16L305.406,60.16Z" fill="#F64920"/>
<path d="M339.89,46.848C337.16,46.848 334.92,46.421 333.17,45.568C331.422,44.672 330.12,43.499 329.266,42.048C328.414,40.597 327.986,38.997 327.986,37.248C327.986,34.304 329.14,31.915 331.442,30.08C333.746,28.245 337.204,27.328 341.812,27.328L349.876,27.328L349.876,26.56C349.876,24.384 349.256,22.784 348.02,21.76C346.782,20.736 345.246,20.224 343.412,20.224C341.748,20.224 340.296,20.629 339.058,21.44C337.822,22.208 337.054,23.36 336.756,24.896L328.756,24.896C328.968,22.592 329.736,20.587 331.058,18.88C332.424,17.173 334.174,15.872 336.308,14.976C338.44,14.037 340.83,13.568 343.476,13.568C347.998,13.568 351.56,14.699 354.162,16.96C356.766,19.221 358.068,22.421 358.068,26.56L358.068,46.08L351.092,46.08L350.322,40.96C349.384,42.667 348.062,44.075 346.356,45.184C344.692,46.293 342.536,46.848 339.89,46.848ZM341.748,40.448C344.094,40.448 345.908,39.68 347.188,38.144C348.51,36.608 349.342,34.709 349.684,32.448L342.708,32.448C340.532,32.448 338.974,32.853 338.036,33.664C337.096,34.432 336.628,35.392 336.628,36.544C336.628,37.781 337.096,38.741 338.036,39.424C338.974,40.107 340.21,40.448 341.748,40.448Z" fill="#F64920"/>
<path d="M366.284,46.08L366.284,14.336L373.58,14.336L374.348,20.288C375.5,18.24 377.058,16.619 379.02,15.424C381.026,14.187 383.372,13.568 386.06,13.568L386.06,22.208L383.756,22.208C381.964,22.208 380.364,22.485 378.956,23.04C377.548,23.595 376.44,24.555 375.628,25.92C374.86,27.285 374.476,29.184 374.476,31.616L374.476,46.08L366.284,46.08Z" fill="#F64920"/>
<path d="M39.551,8.064C40.532,8.96 41.77,9.408 43.263,9.408C44.756,9.408 45.972,8.96 46.911,8.064C47.892,7.168 48.383,6.037 48.383,4.672C48.383,3.307 47.892,2.197 46.911,1.344C45.972,0.448 44.756,0 43.263,0C41.77,0 40.532,0.448 39.551,1.344C38.612,2.197 38.143,3.307 38.143,4.672C38.143,6.037 38.612,7.168 39.551,8.064ZM39.167,14.336L39.167,46.08L47.359,46.08L47.359,14.336L39.167,14.336ZM0,14.336L11.648,46.08L21.568,46.08L33.28,14.336L24.704,14.336L16.64,38.336L8.576,14.336L0,14.336ZM70.901,46.848C67.915,46.848 65.248,46.123 62.902,44.672C60.555,43.221 58.699,41.237 57.333,38.72C55.968,36.203 55.285,33.344 55.285,30.144C55.285,26.944 55.968,24.107 57.333,21.632C58.699,19.115 60.555,17.152 62.902,15.744C65.248,14.293 67.915,13.568 70.901,13.568C73.291,13.568 75.382,14.016 77.174,14.912C78.965,15.808 80.416,17.067 81.525,18.688L81.525,0L89.717,0L89.717,46.08L82.422,46.08L81.525,41.536C80.501,42.944 79.136,44.181 77.429,45.248C75.765,46.315 73.589,46.848 70.901,46.848ZM72.63,39.68C75.275,39.68 77.429,38.805 79.093,37.056C80.8,35.264 81.654,32.981 81.654,30.208C81.654,27.435 80.8,25.173 79.093,23.424C77.429,21.632 75.275,20.736 72.63,20.736C70.027,20.736 67.872,21.611 66.165,23.36C64.459,25.109 63.605,27.371 63.605,30.144C63.605,32.917 64.459,35.2 66.165,36.992C67.872,38.784 70.027,39.68 72.63,39.68ZM105.371,44.8C107.846,46.165 110.684,46.848 113.883,46.848C116.443,46.848 118.726,46.379 120.731,45.44C122.779,44.501 124.486,43.221 125.852,41.6C127.259,39.936 128.262,38.101 128.859,36.096L120.539,36.096C119.985,37.291 119.132,38.272 117.979,39.04C116.87,39.765 115.483,40.128 113.819,40.128C111.601,40.128 109.702,39.424 108.123,38.016C106.587,36.608 105.734,34.667 105.563,32.192L129.691,32.192C129.734,31.637 129.755,31.104 129.755,30.592C129.798,30.08 129.82,29.589 129.82,29.12C129.82,26.219 129.137,23.595 127.771,21.248C126.449,18.859 124.593,16.981 122.203,15.616C119.814,14.251 117.062,13.568 113.947,13.568C110.619,13.568 107.718,14.293 105.243,15.744C102.812,17.152 100.891,19.136 99.483,21.696C98.118,24.256 97.435,27.179 97.435,30.464C97.435,33.707 98.14,36.565 99.548,39.04C100.955,41.515 102.897,43.435 105.371,44.8ZM108.635,21.952C110.172,20.8 111.942,20.224 113.947,20.224C116.038,20.224 117.787,20.843 119.195,22.08C120.603,23.317 121.371,24.981 121.499,27.072L105.691,27.072C106.118,24.768 107.099,23.061 108.635,21.952ZM152.342,46.848C149.27,46.848 146.496,46.144 144.021,44.736C141.589,43.328 139.648,41.387 138.198,38.912C136.79,36.395 136.086,33.493 136.086,30.208C136.086,26.923 136.811,24.043 138.262,21.568C139.712,19.051 141.654,17.088 144.086,15.68C146.56,14.272 149.333,13.568 152.406,13.568C155.435,13.568 158.165,14.272 160.598,15.68C163.072,17.088 165.014,19.051 166.422,21.568C167.872,24.043 168.598,26.923 168.598,30.208C168.598,33.493 167.872,36.395 166.422,38.912C165.014,41.387 163.072,43.328 160.598,44.736C158.123,46.144 155.371,46.848 152.342,46.848ZM152.342,39.744C154.475,39.744 156.331,38.955 157.91,37.376C159.488,35.755 160.278,33.365 160.278,30.208C160.278,27.051 159.488,24.683 157.91,23.104C156.331,21.483 154.496,20.672 152.406,20.672C150.23,20.672 148.352,21.483 146.774,23.104C145.238,24.683 144.47,27.051 144.47,30.208C144.47,33.365 145.238,35.755 146.774,37.376C148.352,38.955 150.208,39.744 152.342,39.744ZM210.754,30.214C204.236,34.901 198.401,40.478 193.427,46.766C191.737,46.6 190.217,46.179 188.866,45.504C187.074,44.608 185.623,43.349 184.514,41.728L183.618,46.08L176.322,46.08L176.322,0L184.514,0L184.514,18.88C185.538,17.472 186.882,16.235 188.546,15.168C190.253,14.101 192.45,13.568 195.138,13.568C198.125,13.568 200.792,14.293 203.138,15.744C205.484,17.195 207.34,19.179 208.706,21.696C210.064,24.198 210.746,27.037 210.754,30.214ZM242.828,15.985C233.982,17.878 225.638,21.132 218.03,25.517C218.37,24.164 218.858,22.891 219.496,21.696C220.904,19.136 222.824,17.152 225.256,15.744C227.73,14.293 230.632,13.568 233.96,13.568C237.074,13.568 239.826,14.251 242.216,15.616C242.424,15.735 242.628,15.858 242.828,15.985ZM265.314,14.191C263.856,14.117 262.388,14.08 260.912,14.08C259.642,14.08 258.378,14.107 257.122,14.162L257.122,0L265.314,0L265.314,14.191ZM303.152,25.15C295.82,21.008 287.82,17.911 279.352,16.062C280.002,15.65 280.7,15.289 281.444,14.976C283.578,14.037 285.968,13.568 288.612,13.568C293.136,13.568 296.698,14.699 299.3,16.96C301.6,18.958 302.884,21.688 303.152,25.15ZM319.998,37.591C317.414,35.146 314.678,32.861 311.806,30.749L311.806,14.336L319.998,14.336L319.998,37.591ZM199.874,37.056C198.167,38.805 196.013,39.68 193.41,39.68C190.765,39.68 188.589,38.805 186.882,37.056C185.218,35.264 184.386,32.981 184.386,30.208C184.386,27.435 185.218,25.173 186.882,23.424C188.589,21.632 190.765,20.736 193.41,20.736C196.013,20.736 198.167,21.632 199.874,23.424C201.58,25.216 202.434,27.499 202.434,30.272C202.434,33.045 201.58,35.307 199.874,37.056ZM312.254,8.064C313.236,8.96 314.472,9.408 315.966,9.408C317.46,9.408 318.676,8.96 319.614,8.064C320.596,7.168 321.086,6.037 321.086,4.672C321.086,3.307 320.596,2.197 319.614,1.344C318.676,0.448 317.46,0 315.966,0C314.472,0 313.236,0.448 312.254,1.344C311.316,2.197 310.846,3.307 310.846,4.672C310.846,6.037 311.316,7.168 312.254,8.064ZM339.89,46.848C337.16,46.848 334.92,46.421 333.17,45.568C331.422,44.672 330.12,43.499 329.266,42.048C328.414,40.597 327.986,38.997 327.986,37.248C327.986,34.304 329.14,31.915 331.442,30.08C333.746,28.245 337.204,27.328 341.812,27.328L349.876,27.328L349.876,26.56C349.876,24.384 349.256,22.784 348.02,21.76C346.782,20.736 345.246,20.224 343.412,20.224C341.748,20.224 340.296,20.629 339.058,21.44C337.822,22.208 337.054,23.36 336.756,24.896L328.756,24.896C328.968,22.592 329.736,20.587 331.058,18.88C332.424,17.173 334.174,15.872 336.308,14.976C338.44,14.037 340.83,13.568 343.476,13.568C347.998,13.568 351.56,14.699 354.162,16.96C356.766,19.221 358.068,22.421 358.068,26.56L358.068,46.08L351.092,46.08L350.322,40.96C349.384,42.667 348.062,44.075 346.356,45.184C344.692,46.293 342.536,46.848 339.89,46.848ZM341.748,40.448C344.094,40.448 345.908,39.68 347.188,38.144C348.51,36.608 349.342,34.709 349.684,32.448L342.708,32.448C340.532,32.448 338.974,32.853 338.036,33.664C337.096,34.432 336.628,35.392 336.628,36.544C336.628,37.781 337.096,38.741 338.036,39.424C338.974,40.107 340.21,40.448 341.748,40.448ZM373.58,14.336L366.284,14.336L366.284,46.08L374.476,46.08L374.476,31.616C374.476,29.184 374.86,27.285 375.628,25.92C376.44,24.555 377.548,23.595 378.956,23.04C380.364,22.485 381.964,22.208 383.756,22.208L386.06,22.208L386.06,13.568C383.372,13.568 381.026,14.187 379.02,15.424C377.058,16.619 375.5,18.24 374.348,20.288L373.58,14.336Z" clip-rule="evenodd" fill-rule="evenodd" fill="#FFBD3A"/>
</svg>
