<svg width="42" height="42" viewBox="0 0 42 42" fill="none" xmlns="http://www.w3.org/2000/svg" xmlns:xlink="http://www.w3.org/1999/xlink">
<path d="M40.981,21.852C40.981,20.175 40.845,18.951 40.55,17.681L21.398,17.681L21.398,25.251L32.64,25.251C32.414,27.133 31.19,29.966 28.47,31.87L28.432,32.123L34.487,36.814L34.907,36.856C38.76,33.297 40.981,28.062 40.981,21.852Z" fill="#4285F4"/>
<path d="M21.398,41.797C26.906,41.797 31.53,39.984 34.907,36.856L28.47,31.869C26.747,33.071 24.435,33.909 21.398,33.909C16.004,33.909 11.426,30.351 9.794,25.433L9.555,25.453L3.258,30.326L3.176,30.555C6.53,37.218 13.42,41.797 21.398,41.797Z" fill="#34A853"/>
<path d="M9.794,25.433C9.363,24.164 9.114,22.804 9.114,21.398C9.114,19.993 9.363,18.633 9.771,17.364L9.76,17.094L3.384,12.142L3.176,12.242C1.793,15.007 1,18.112 1,21.398C1,24.685 1.793,27.79 3.176,30.555L9.794,25.433Z" fill="#FBBC05"/>
<path d="M21.398,8.887C25.229,8.887 27.813,10.542 29.286,11.925L35.043,6.304C31.507,3.017 26.906,1 21.398,1C13.42,1 6.53,5.578 3.176,12.242L9.771,17.364C11.426,12.446 16.004,8.887 21.398,8.887Z" fill="#EB4335"/>
</svg>
