<svg width="44" height="40" viewBox="0 0 44 40" fill="none" xmlns="http://www.w3.org/2000/svg" xmlns:xlink="http://www.w3.org/1999/xlink">
<path d="M21.66,13L28,19.32L28,19C28,17.409 27.368,15.883 26.243,14.757C25.117,13.632 23.591,13 22,13L21.66,13ZM13.06,14.6L16.16,17.7C16.06,18.12 16,18.54 16,19C16,20.591 16.632,22.117 17.757,23.243C18.883,24.368 20.409,25 22,25C22.44,25 22.88,24.94 23.3,24.84L26.4,27.94C25.06,28.6 23.58,29 22,29C19.348,29 16.804,27.946 14.929,26.071C13.054,24.196 12,21.652 12,19C12,17.42 12.4,15.94 13.06,14.6ZM2,3.54L6.56,8.1L7.46,9C4.16,11.6 1.56,15 0,19C3.46,27.78 12,34 22,34C25.1,34 28.06,33.4 30.76,32.32L31.62,33.16L37.46,39L40,36.46L4.54,1M22,9C24.652,9 27.196,10.054 29.071,11.929C30.946,13.804 32,16.348 32,19C32,20.28 31.74,21.52 31.28,22.64L37.14,28.5C40.14,26 42.54,22.72 44,19C40.54,10.22 32,4 22,4C19.2,4 16.52,4.5 14,5.4L18.34,9.7C19.48,9.26 20.7,9 22,9Z" fill="#6C717A"/>
</svg>
